<svg width="337" height="182" viewBox="0 0 337 182" fill="none" xmlns="http://www.w3.org/2000/svg">
<g clip-path="url(#clip0_3_94)">
<path d="M148.899 182C150.976 178.224 154.371 175.372 158.416 174.007C159.115 173.763 159.848 173.637 160.586 173.634C169.804 173.605 179.021 173.597 188.239 173.61H190.33V164.258H188.988C176.792 164.258 164.6 164.266 152.411 164.281C151.437 164.281 151.148 164.023 151.152 163.033C151.189 155.09 151.189 147.147 151.152 139.206C151.152 138.321 151.395 138.047 152.29 138.05C167.495 138.075 182.7 138.082 197.905 138.069C198.185 138.069 198.464 138.095 198.909 138.119C198.832 138.504 198.728 138.883 198.596 139.253C196.832 143.136 193.754 145.43 189.819 146.658C189.4 146.748 188.97 146.776 188.543 146.74C179.364 146.74 170.184 146.74 161.003 146.74H159.491V150.469C159.491 151.907 159.518 153.346 159.48 154.783C159.463 155.43 159.693 155.71 160.331 155.658C160.648 155.632 160.969 155.658 161.288 155.658C173.302 155.658 185.317 155.651 197.332 155.637C198.366 155.637 198.723 155.852 198.715 156.987C198.655 165.323 198.67 173.659 198.662 182.007L148.899 182Z" fill="#FF0505"/>
<path d="M23.3982 182V148.51C23.3982 146.904 23.3302 146.832 21.6965 146.832C18.0506 146.832 14.4005 146.729 10.7588 146.86C7.50216 146.977 4.93258 145.633 2.95647 143.241C1.73762 141.764 0.967593 139.905 -0.00238037 138.216V138C0.423047 138 0.848474 138.032 1.2739 138.032H55.167C55.0627 138.478 54.9356 138.918 54.7863 139.35C53.4334 142.665 51.1297 145.042 47.8348 146.36C47.079 146.651 46.2779 146.803 45.4694 146.809C41.6788 146.854 37.8862 146.828 34.0956 146.828C31.86 146.828 31.86 146.828 31.86 149.022C31.86 159.584 31.86 170.147 31.86 180.708C31.86 181.139 31.8898 181.571 31.9047 182.002L23.3982 182Z" fill="#FF0505"/>
<path d="M288.014 182C288.044 181.569 288.097 181.137 288.097 180.719C288.097 172.848 288.097 164.977 288.097 157.108V155.766H335.824C335.86 156.113 335.915 156.392 335.915 156.67C335.915 164.969 335.915 173.27 335.915 181.571C335.908 181.715 335.894 181.859 335.873 182.002H327.577C327.577 176.504 327.577 171.002 327.6 165.509C327.6 164.788 327.43 164.495 326.654 164.495C316.908 164.519 307.163 164.519 297.416 164.495C296.75 164.495 296.476 164.663 296.48 165.396C296.512 170.931 296.512 176.463 296.521 182.004L288.014 182Z" fill="#FF0505"/>
<path d="M223.137 182C223.151 181.534 223.177 181.068 223.177 180.602C223.177 166.915 223.177 153.229 223.177 139.544V138.155H231.564V173.763H269.691C268.94 176.895 267.351 179.239 264.886 181.004C264.435 181.327 263.997 181.668 263.552 182H223.137Z" fill="#FF0505"/>
<path d="M83.171 182C82.1075 181.258 80.9545 180.607 79.9803 179.757C78.1442 178.174 76.8437 176.048 76.2621 173.677H126.428C126.361 174.009 126.277 174.337 126.177 174.66C125.136 177.64 123.013 180.104 120.241 181.549C119.998 181.679 119.777 181.849 119.545 182H83.171Z" fill="#FF0505"/>
<path d="M126.394 155.66C125.603 159.836 120.83 164.516 116.227 164.422C106.627 164.223 97.0208 164.361 87.4168 164.361C82.418 164.361 78.6168 161.773 76.7215 157.073C76.5556 156.659 76.4577 156.21 76.2961 155.66H126.394Z" fill="#FF0505"/>
<path d="M337 138.078C336.266 142.255 331.378 146.985 326.815 146.888C316.935 146.673 307.048 146.787 297.163 146.85C294.987 146.863 293.145 146.168 291.452 144.908C289.519 143.481 288.041 141.513 287.197 139.245C287.111 139.011 287.039 138.772 286.985 138.528C286.969 138.379 286.969 138.229 286.985 138.08L337 138.078Z" fill="#FF0505"/>
<path d="M126.388 138.071C125.558 142.521 120.532 146.949 116.261 146.869C106.414 146.681 96.5634 146.772 86.7127 146.837C84.5408 146.864 82.4257 146.133 80.7227 144.766C78.8076 143.316 77.3578 141.325 76.5556 139.042C76.4847 138.839 76.4244 138.634 76.3748 138.425C76.3638 138.307 76.3638 138.189 76.3748 138.071H126.388Z" fill="#FF0505"/>
</g>
<path d="M170.448 0C170.618 0.0207022 170.788 0.0524955 170.959 0.0606285C173.751 0.196672 176.55 0.248426 179.333 0.484284C182.508 0.752673 185.678 1.1194 188.837 1.55784C196.646 2.6442 204.344 4.40687 211.845 6.82582C215.156 7.89199 218.413 9.12377 221.696 10.2816C221.787 10.3134 221.874 10.3593 222.002 10.4162C221.922 10.6299 221.862 10.8406 221.766 11.0343C220.901 12.7895 220.026 14.5396 219.167 16.2971C219.028 16.5832 218.864 16.4568 218.686 16.3873C216.17 15.4032 213.672 14.3651 211.131 13.4468C205.827 11.5238 200.379 10.021 194.837 8.95224C191.71 8.35113 188.561 7.84319 185.407 7.4114C181.953 6.93747 178.475 6.62767 174.986 6.57C170.93 6.50272 166.869 6.41843 162.815 6.54043C159.4 6.64394 155.977 6.93969 152.575 7.31233C141.177 8.55964 130.202 11.4372 119.617 15.8224C119.138 16.0206 118.668 16.2409 118.183 16.4235C118.09 16.459 117.875 16.4013 117.839 16.3267C116.885 14.3962 115.947 12.4576 115.007 10.519C114.999 10.4782 114.997 10.4368 115 10.3955C115.703 10.1219 116.42 9.83652 117.142 9.56517C122.813 7.42779 128.608 5.63377 134.496 4.19294C138.336 3.25321 142.202 2.43991 146.113 1.86468C149.083 1.42845 152.059 1.03659 155.042 0.710529C157.18 0.47689 159.331 0.363029 161.478 0.235858C163.034 0.142698 164.592 0.116081 166.15 0.0561925C166.272 0.0443354 166.393 0.0255737 166.513 0H170.448Z" fill="#FF0505"/>
<path d="M168.489 23.7477C169.461 22.5707 170.404 21.4298 171.345 20.2882C173.998 17.07 176.649 13.8498 179.299 10.6277C179.466 10.4243 179.634 10.34 179.893 10.3622C182.011 10.5478 184.142 10.6365 186.246 10.9249C189.364 11.353 192.483 11.8336 195.567 12.4465C202.992 13.9252 210.174 16.1944 217.07 19.3337C217.125 19.3588 217.176 19.3914 217.272 19.4431C217.198 19.5592 217.131 19.6701 217.057 19.7751C215.209 22.3902 212.853 24.4767 210.226 26.2749C208.064 27.7546 205.755 29.0091 203.336 30.0183C203.214 30.0686 203.09 30.1151 203.024 30.1418C202.776 29.2397 202.606 28.3407 202.281 27.5C201.552 25.6131 200.053 24.5093 198.218 23.8032C196.615 23.1895 194.937 22.8915 193.243 22.6941C190.129 22.3244 186.999 22.2904 183.869 22.2505C183.532 22.2461 183.429 22.3614 183.375 22.6682C182.707 26.4715 182.032 30.2741 181.349 34.0759C180.721 37.5998 180.092 41.1241 179.461 44.6489C178.83 48.1845 178.198 51.7202 177.566 55.2558C176.934 58.7915 176.303 62.3259 175.673 65.8591C175.068 69.2493 174.462 72.6393 173.856 76.0291C173.222 79.578 172.588 83.127 171.955 86.6759C171.327 90.1998 170.698 93.7241 170.068 97.2489C169.565 100.07 169.064 102.892 168.564 105.713C168.551 105.787 168.523 105.852 168.478 106.009C168.189 104.407 167.913 102.89 167.64 101.372C167.009 97.8608 166.378 94.3501 165.747 90.8401C165.092 87.196 164.435 83.5521 163.779 79.9085C163.07 75.9687 162.361 72.0311 161.652 68.0957C160.997 64.4521 160.343 60.808 159.689 57.1634C159.036 53.5188 158.379 49.8759 157.718 46.2348C157.039 42.4576 156.36 38.6805 155.682 34.9033C155 31.1143 154.317 27.3255 153.633 23.537C153.574 23.2102 153.501 22.8849 153.462 22.5551C153.436 22.3259 153.345 22.2416 153.109 22.2439C149.422 22.2786 145.735 22.3178 142.084 22.9211C140.729 23.1429 139.402 23.483 138.142 24.0472C135.799 25.0963 134.514 26.927 134.132 29.4238C134.114 29.5458 134.091 29.6664 134.074 29.7883C134.058 29.8978 134.048 30.0102 134.025 30.2046C128.372 27.7499 123.321 24.5802 119.653 19.4513C120.262 19.1747 120.825 18.9086 121.396 18.6616C127.711 15.9355 134.296 13.8762 141.043 12.5175C143.865 11.9467 146.701 11.4565 149.55 11.0676C152.008 10.7319 154.495 10.5951 156.968 10.3637C157.292 10.3334 157.506 10.4332 157.719 10.6935C161.227 14.967 164.742 19.2344 168.264 23.4956C168.324 23.571 168.393 23.6413 168.489 23.7477Z" fill="#FF0505"/>
<defs>
<clipPath id="clip0_3_94">
<rect width="337" height="44" fill="white" transform="translate(0 138)"/>
</clipPath>
</defs>
</svg>
