<?xml version="1.0" encoding="utf-8"?>
<!-- Generator: Adobe Illustrator 22.1.0, SVG Export Plug-In . SVG Version: 6.00 Build 0)  -->
<svg version="1.1" id="Слой_1" xmlns="http://www.w3.org/2000/svg" xmlns:xlink="http://www.w3.org/1999/xlink" x="0px" y="0px"
	 viewBox="0 0 40 40" style="enable-background:new 0 0 40 40;" xml:space="preserve">
<style type="text/css">
	.st0{fill:#323232;}
</style>
<g>
	<path class="st0" d="M26.7,27.7c-0.3,0-0.5-0.1-0.7-0.3L12.6,14c-0.4-0.4-0.4-1,0-1.4s1-0.4,1.4,0L27.4,26c0.4,0.4,0.4,1,0,1.4
		C27.2,27.6,26.9,27.7,26.7,27.7z"/>
</g>
<g>
	<path class="st0" d="M13.3,27.7c-0.3,0-0.5-0.1-0.7-0.3c-0.4-0.4-0.4-1,0-1.4L26,12.6c0.4-0.4,1-0.4,1.4,0s0.4,1,0,1.4L14,27.4
		C13.8,27.6,13.6,27.7,13.3,27.7z"/>
</g>
</svg>
