<?xml version="1.0" encoding="utf-8"?>
<!-- Generator: Adobe Illustrator 22.1.0, SVG Export Plug-In . SVG Version: 6.00 Build 0)  -->
<svg version="1.1" id="Слой_1" xmlns="http://www.w3.org/2000/svg" xmlns:xlink="http://www.w3.org/1999/xlink" x="0px" y="0px"
	 viewBox="0 0 37 37" style="enable-background:new 0 0 37 37;" xml:space="preserve">
<style type="text/css">
	.st0{fill:#323232;}
</style>
<g>
	<path class="st0" d="M23.1,27.2h-4.6c-0.3,0-0.6-0.2-0.8-0.4l-3.1-4.6c-0.3-0.4-0.2-0.9,0.1-1.3l1.7-1.7c0.2-0.2,0.5-0.3,0.8-0.3
		l3.1,0.2c0.2,0,0.4,0.1,0.5,0.2l4.5,3.1c0.4,0.3,0.5,0.8,0.3,1.3L24,26.7C23.8,27,23.5,27.2,23.1,27.2z M19,25.2h3.5l0.9-1.8
		L19.9,21l-2.4-0.1l-0.8,0.8L19,25.2z"/>
</g>
<g>
	<path class="st0" d="M18.5,33.4c-0.4,0-0.9,0-1.3-0.1c-7.1-0.7-12.9-6.5-13.5-13.5c-0.4-4.4,1.2-8.7,4.3-11.9
		c3.1-3.1,7.5-4.7,11.9-4.3c0,0,0,0,0,0c7.1,0.7,12.9,6.5,13.5,13.5c0.4,4.4-1.2,8.7-4.3,11.9C26.2,31.9,22.4,33.4,18.5,33.4z
		 M18.5,5.6c-3.4,0-6.7,1.3-9.1,3.8c-2.7,2.7-4.1,6.5-3.7,10.3c0.6,6.1,5.6,11.2,11.7,11.7c3.8,0.3,7.6-1,10.3-3.7
		c2.7-2.7,4.1-6.5,3.7-10.3c-0.6-6.1-5.6-11.2-11.7-11.7C19.3,5.6,18.9,5.6,18.5,5.6z"/>
</g>
<g>
	<path class="st0" d="M12.3,18c-0.2,0-0.4-0.1-0.6-0.2l-6.2-4.6c-0.4-0.3-0.5-1-0.2-1.4c0.3-0.4,1-0.5,1.4-0.2l5.2,3.9l1-2
		c0.1-0.3,0.4-0.5,0.7-0.5l5.6-1.4l1.7-6.7c0.1-0.5,0.7-0.9,1.2-0.7c0.5,0.1,0.9,0.7,0.7,1.2L21,12.6c-0.1,0.4-0.4,0.6-0.7,0.7
		l-5.7,1.4l-1.3,2.7c-0.1,0.3-0.4,0.5-0.7,0.5C12.5,17.9,12.4,18,12.3,18z"/>
</g>
</svg>
