<?xml version="1.0" encoding="utf-8"?>
<!-- Generator: Adobe Illustrator 22.1.0, SVG Export Plug-In . SVG Version: 6.00 Build 0)  -->
<svg version="1.1" id="Слой_1" xmlns="http://www.w3.org/2000/svg" xmlns:xlink="http://www.w3.org/1999/xlink" x="0px" y="0px"
	 viewBox="0 0 37 37" style="enable-background:new 0 0 37 37;" xml:space="preserve">
<style type="text/css">
	.st0{fill:#323232;}
</style>
<g>
	<path class="st0" d="M32.4,11.8c-0.6,0-1-0.4-1-1V7.7c0-0.4-0.2-0.5-0.5-0.5h-3.1c-0.4,0-0.5,0.2-0.5,0.5v3.1c0,0.6-0.4,1-1,1
		s-1-0.4-1-1V7.7c0-1.5,1.1-2.5,2.5-2.5h3.1c1.5,0,2.5,1.1,2.5,2.5v3.1C33.4,11.3,32.9,11.8,32.4,11.8z"/>
</g>
<g>
	<path class="st0" d="M26.2,23.4c-0.6,0-1-0.4-1-1v-4.6c0-0.6,0.4-1,1-1s1,0.4,1,1v4.6C27.2,22.9,26.8,23.4,26.2,23.4z"/>
</g>
<g>
	<path class="st0" d="M28.5,21h-4.6c-0.6,0-1-0.4-1-1s0.4-1,1-1h4.6c0.6,0,1,0.4,1,1S29.1,21,28.5,21z"/>
</g>
<g>
	<path class="st0" d="M13.1,21H8.5c-0.6,0-1-0.4-1-1s0.4-1,1-1h4.6c0.6,0,1,0.4,1,1S13.7,21,13.1,21z"/>
</g>
<g>
	<path class="st0" d="M10.8,11.8c-0.6,0-1-0.4-1-1V7.7c0-0.4-0.2-0.5-0.5-0.5H6.2c-0.4,0-0.5,0.2-0.5,0.5v3.1c0,0.6-0.4,1-1,1
		s-1-0.4-1-1V7.7c0-1.5,1.1-2.5,2.5-2.5h3.1c1.5,0,2.5,1.1,2.5,2.5v3.1C11.8,11.3,11.3,11.8,10.8,11.8z"/>
</g>
<g>
	<path class="st0" d="M30.8,31.8H6.2c-2.3,0-4.1-1.8-4.1-4.1V12.3c0-1.5,1.1-2.5,2.5-2.5h5.8l2.3-2.3c0.5-0.5,1.1-0.8,1.8-0.8h8
		c0.7,0,1.3,0.2,1.8,0.8l2.3,2.3h5.8c1.5,0,2.5,1.1,2.5,2.5v15.4C34.9,30,33.1,31.8,30.8,31.8z M4.6,11.8c-0.4,0-0.5,0.2-0.5,0.5
		v15.4c0,1.1,0.9,2.1,2.1,2.1h24.7c1.1,0,2.1-0.9,2.1-2.1V12.3c0-0.4-0.2-0.5-0.5-0.5h-6.2c-0.3,0-0.5-0.1-0.7-0.3l-2.6-2.6
		c-0.1-0.1-0.2-0.2-0.4-0.2h-8c-0.2,0-0.2,0-0.4,0.2l-2.6,2.6c-0.2,0.2-0.4,0.3-0.7,0.3H4.6z"/>
</g>
</svg>
