<?xml version="1.0" encoding="utf-8"?>
<!-- Generator: Adobe Illustrator 22.1.0, SVG Export Plug-In . SVG Version: 6.00 Build 0)  -->
<svg version="1.1" id="Слой_1" xmlns="http://www.w3.org/2000/svg" xmlns:xlink="http://www.w3.org/1999/xlink" x="0px" y="0px"
	 viewBox="0 0 37 37" style="enable-background:new 0 0 37 37;" xml:space="preserve">
<style type="text/css">
	.st0{fill:#323232;}
</style>
<g>
	<path class="st0" d="M29.9,16.4c-0.4,0-0.8-0.2-0.9-0.6c-0.2-0.5,0.1-1.1,0.6-1.3l4-1.5c0.5-0.2,1.1,0.1,1.3,0.6
		c0.2,0.5-0.1,1.1-0.6,1.3l-4,1.5C30.1,16.4,30,16.4,29.9,16.4z"/>
</g>
<g>
	<path class="st0" d="M7.1,16.4c-0.1,0-0.2,0-0.4-0.1l-4-1.5C2.2,14.6,2,14,2.1,13.5c0.2-0.5,0.8-0.8,1.3-0.6l4,1.5
		C8,14.7,8.2,15.3,8,15.8C7.9,16.2,7.5,16.4,7.1,16.4z"/>
</g>
<g>
	<path class="st0" d="M28.2,22.6h-3.9c-0.6,0-1-0.4-1-1s0.4-1,1-1h3.9c0.6,0,1,0.4,1,1S28.8,22.6,28.2,22.6z"/>
</g>
<g>
	<path class="st0" d="M12.8,22.6H8.9c-0.6,0-1-0.4-1-1s0.4-1,1-1h3.9c0.6,0,1,0.4,1,1S13.3,22.6,12.8,22.6z"/>
</g>
<g>
	<path class="st0" d="M7.1,16.4c-0.1,0-0.2,0-0.2,0c-0.5-0.1-0.9-0.7-0.7-1.2l1.5-6.3C8,6.7,10,5.2,12.3,5.2H25
		c2.3,0,4.3,1.7,4.7,3.9l1.2,6.1c0.1,0.5-0.2,1.1-0.8,1.2c-0.5,0.1-1.1-0.2-1.2-0.8l-1.2-6.2C27.5,8,26.1,7.2,25,7.2H12.3
		c-1.4,0-2.5,0.9-2.7,2.1l-1.6,6.4C7.9,16.1,7.5,16.4,7.1,16.4z"/>
</g>
<g>
	<path class="st0" d="M32.2,31.8h-3.5c-1.8,0-3.3-1.5-3.3-3.3V28H11.9v0.5c0,1.8-1.5,3.3-3.3,3.3H5.1c-0.9,0-1.7-0.4-2.3-1.1
		c-0.4-0.6-0.6-1.3-0.4-2v-8.8c0-3.2,2.5-5.6,5.6-5.6h21.6c3.2,0,5.6,2.5,5.6,5.6v8.9C35.2,30.5,33.8,31.8,32.2,31.8z M10.9,26h15.4
		c0.6,0,1,0.4,1,1v1.5c0,0.7,0.6,1.3,1.3,1.3h3.5c0.5,0,1-0.5,1-1v-8.9c0-2.1-1.6-3.6-3.6-3.6H8c-2.1,0-3.6,1.6-3.6,3.6v8.9
		c0,0.1,0,0.2,0,0.3c0,0.2,0,0.3,0.1,0.4c0.1,0.2,0.4,0.3,0.7,0.3h3.5c0.7,0,1.3-0.6,1.3-1.3V27C9.9,26.4,10.4,26,10.9,26z"/>
</g>
</svg>
