<?xml version="1.0" encoding="utf-8"?>
<!-- Generator: Adobe Illustrator 22.1.0, SVG Export Plug-In . SVG Version: 6.00 Build 0)  -->
<svg version="1.1" id="Слой_1" xmlns="http://www.w3.org/2000/svg" xmlns:xlink="http://www.w3.org/1999/xlink" x="0px" y="0px"
	 viewBox="0 0 18 19" style="enable-background:new 0 0 18 19;" xml:space="preserve">
<style type="text/css">
	.st0{fill:#B2B2B2;}
</style>
<g>
	<path class="st0" d="M13.9,10.3H3.7c-0.4,0-0.8-0.3-0.8-0.8s0.3-0.8,0.8-0.8h10.3c0.4,0,0.8,0.3,0.8,0.8S14.3,10.3,13.9,10.3z"/>
</g>
<g>
	<path class="st0" d="M10.3,13.9c-0.2,0-0.4-0.1-0.5-0.2c-0.3-0.3-0.3-0.8,0-1.1L13.4,9c0.3-0.3,0.8-0.3,1.1,0s0.3,0.8,0,1.1
		l-3.7,3.7C10.7,13.8,10.5,13.9,10.3,13.9z"/>
</g>
<g>
	<path class="st0" d="M13.9,10.3c-0.2,0-0.4-0.1-0.5-0.2L9.7,6.4c-0.3-0.3-0.3-0.8,0-1.1s0.8-0.3,1.1,0L14.5,9
		c0.3,0.3,0.3,0.8,0,1.1C14.3,10.2,14.1,10.3,13.9,10.3z"/>
</g>
</svg>
