<svg width="105" height="14" viewBox="0 0 105 14" fill="none" xmlns="http://www.w3.org/2000/svg">
<g clip-path="url(#clip0_3_468)">
<path d="M46.3931 14C47.04 12.7985 48.0978 11.8912 49.3582 11.4567C49.5758 11.3793 49.8042 11.3392 50.0343 11.3379C52.9062 11.3288 55.7782 11.3263 58.6501 11.3304H59.3016V8.35471H58.8834C55.0836 8.35471 51.2849 8.35722 47.4873 8.36226C47.1837 8.36226 47.0936 8.27991 47.0949 7.96491C47.1064 5.43759 47.1064 2.91049 47.0949 0.383624C47.0949 0.102251 47.1705 0.0150953 47.4495 0.0157816C52.1869 0.0240169 56.9243 0.0260734 61.6617 0.0219557C61.7492 0.0219557 61.836 0.0301981 61.9745 0.0377471C61.9508 0.160428 61.9182 0.281094 61.8771 0.398728C61.3277 1.63402 60.3687 2.36422 59.1426 2.75471C59.0119 2.78348 58.878 2.79227 58.7449 2.78079C55.8849 2.78079 53.0246 2.78079 50.1642 2.78079H49.6929V3.96736C49.6929 4.4251 49.7016 4.88285 49.6896 5.33991C49.6843 5.54579 49.7559 5.635 49.9547 5.61853C50.0535 5.6103 50.1536 5.61853 50.253 5.61853C53.9962 5.61853 57.7397 5.61624 61.4834 5.61167C61.8055 5.61167 61.9169 5.6803 61.9142 6.04128C61.8957 8.69373 61.9003 11.3462 61.8976 14.0021L46.3931 14Z" fill="black"/>
<path d="M7.29026 14V3.34421C7.29026 2.83294 7.26905 2.81029 6.76006 2.81029C5.62409 2.81029 4.4868 2.77735 3.35216 2.81921C2.33748 2.85627 1.53687 2.42873 0.921163 1.66765C0.541403 1.19755 0.301485 0.60598 -0.000732422 0.0686274V0C0.131819 0 0.264371 0.0102958 0.396922 0.0102958H17.1885C17.156 0.1521 17.1164 0.292058 17.0699 0.429608C16.6484 1.48441 15.9306 2.24069 14.904 2.66C14.6685 2.7527 14.419 2.80104 14.167 2.80274C12.986 2.81715 11.8043 2.80892 10.6233 2.80892C9.92671 2.80892 9.92671 2.80892 9.92671 3.50686C9.92671 6.86777 9.92671 10.2285 9.92671 13.5889C9.92671 13.7262 9.93599 13.8634 9.94063 14.0007L7.29026 14Z" fill="black"/>
<path d="M89.7373 14C89.7466 13.8627 89.7632 13.7255 89.7632 13.5924C89.7632 11.0879 89.7632 8.58369 89.7632 6.07971V5.65285H104.633C104.645 5.76334 104.662 5.85187 104.662 5.9404C104.662 8.58118 104.662 11.2222 104.662 13.8634C104.66 13.9094 104.655 13.9552 104.649 14.0007H102.064C102.064 12.2514 102.064 10.5007 102.071 8.75275C102.071 8.52354 102.018 8.4302 101.776 8.4302C98.74 8.43798 95.7034 8.43798 92.6667 8.4302C92.4592 8.4302 92.3738 8.48373 92.3751 8.71706C92.385 10.478 92.385 12.2383 92.3877 14.0014L89.7373 14Z" fill="black"/>
<path d="M69.5232 14C69.5278 13.8518 69.5358 13.7035 69.5358 13.5553C69.5358 9.2002 69.5358 4.84556 69.5358 0.491373V0.049408H72.149V11.3791H84.0283C83.7944 12.3756 83.2993 13.1216 82.5311 13.6829C82.3906 13.7859 82.2541 13.8943 82.1156 14H69.5232Z" fill="black"/>
<path d="M25.9139 14C25.5825 13.7639 25.2233 13.5567 24.9197 13.2863C24.3476 12.7828 23.9425 12.1061 23.7612 11.3517H39.3917C39.3707 11.4573 39.3446 11.5617 39.3135 11.6646C38.9892 12.6126 38.3275 13.3967 37.4637 13.8566C37.3882 13.8977 37.3193 13.952 37.247 14H25.9139Z" fill="black"/>
<path d="M39.381 5.61922C39.1345 6.94784 37.6472 8.43706 36.213 8.40686C33.222 8.34373 30.229 8.38765 27.2366 8.38765C25.6791 8.38765 24.4948 7.56412 23.9043 6.06873C23.8526 5.93697 23.8221 5.79422 23.7717 5.61922H39.381Z" fill="black"/>
<path d="M105 0.024704C104.771 1.35402 103.248 2.85902 101.827 2.82813C98.7483 2.75951 95.6678 2.79588 92.5879 2.81579C91.9099 2.8199 91.336 2.59892 90.8084 2.19814C90.2064 1.74401 89.7457 1.11762 89.4829 0.395981C89.4559 0.321672 89.4338 0.245545 89.4167 0.168133C89.4119 0.120679 89.4119 0.0728448 89.4167 0.0253909L105 0.024704Z" fill="black"/>
<path d="M39.379 0.022644C39.1206 1.43843 37.5545 2.84735 36.2237 2.82196C33.1557 2.76225 30.0865 2.79108 27.0173 2.81166C26.3406 2.82039 25.6816 2.58776 25.151 2.15284C24.5543 1.6915 24.1026 1.05783 23.8526 0.331468C23.8305 0.267108 23.8117 0.201594 23.7963 0.135194C23.7928 0.097762 23.7928 0.0600761 23.7963 0.022644H39.379Z" fill="black"/>
</g>
<defs>
<clipPath id="clip0_3_468">
<rect width="105" height="14" fill="white"/>
</clipPath>
</defs>
</svg>
